Coordinates
version=1
nRows=29
nColumns=24
inDegrees=yes

Units are S.I. units (second, meters, Newtons, ...)
Angles are in degrees.

endheader
time	pelvis_tilt	pelvis_list	pelvis_rotation	pelvis_tx	pelvis_ty	pelvis_tz	hip_flexion_r	hip_adduction_r	hip_rotation_r	knee_angle_r	ankle_angle_r	subtalar_angle_r	mtp_angle_r	hip_flexion_l	hip_adduction_l	hip_rotation_l	knee_angle_l	ankle_angle_l	subtalar_angle_l	mtp_angle_l	lumbar_extension	lumbar_bending	lumbar_rotation
      1.09200000	     -4.86329696	      6.93539932	     -1.26423849	      0.18381327	      0.89883951	      0.30859642	     20.06206841	    -12.08468378	     -6.68295384	    -74.56081102	     -2.09582461	     12.35061630	     11.33281447	     15.28167008	     10.32599238	     -4.20166859	    -18.17274186	      9.69867643	     -6.42338464	      2.14280646	     -4.08902204	     -9.83124773	      1.95566487
      1.09616667	     -4.88011182	      6.72936424	     -1.22673656	      0.18911066	      0.89997161	      0.30846922	     20.80328733	    -11.78783040	     -6.72395445	    -74.48013867	     -1.60094619	     12.19334373	     11.30705004	     14.62747691	     10.16076424	     -4.05034300	    -17.61071594	      9.75119668	     -6.32723672	      2.14042735	     -4.03803131	     -9.59501999	      1.89176806
      1.10033333	     -4.82929745	      6.50359434	     -1.14691339	      0.19439891	      0.90121229	      0.30823738	     21.42558659	    -11.49237024	     -6.83405012	    -74.30302359	     -1.11463846	     12.02621455	     11.17280990	     13.87271264	     10.01251646	     -3.70056230	    -16.99139233	      9.72439415	     -6.50378780	      2.11797921	     -4.13368802	     -9.30177628	      1.63594057
      1.10450000	     -4.83337094	      6.28165694	     -1.08225101	      0.19967518	      0.90229699	      0.30804789	     22.10852456	    -11.18510670	     -6.92127866	    -74.07971829	     -0.58034754	     11.84466265	     11.11979858	     13.21418629	      9.83709329	     -3.50301025	    -16.43921432	      9.72279544	     -6.48384121	      2.10766034	     -4.12464869	     -9.01629033	      1.52596311
      1.10866667	     -4.77951921	      6.04097787	     -0.99530233	      0.20499856	      0.90348575	      0.30781326	     22.68050419	    -10.87102696	     -7.05578574	    -73.74381417	     -0.15421349	     11.65604511	     10.99759228	     12.45230284	      9.66369573	     -3.15579845	    -15.80909109	      9.71518315	     -6.63491141	      2.08252731	     -4.18843132	     -8.72693392	      1.27606058
      1.11283333	     -4.75218409	      5.80077636	     -0.90500285	      0.21029932	      0.90457004	      0.30757109	     23.27096712	    -10.55600816	     -7.19183159	    -73.35654238	      0.31941201	     11.45181831	     10.88504484	     11.74336327	      9.47822978	     -2.86354860	    -15.22139078	      9.69753714	     -6.72054876	      2.05710550	     -4.22216071	     -8.42726515	      1.08095670
      1.11700000	     -4.71710372	      5.55919780	     -0.80610734	      0.21559985	      0.90562085	      0.30730991	     23.83093781	    -10.24626623	     -7.34656393	    -72.90086726	      0.77160048	     11.23403519	     10.75734622	     11.02903761	      9.28893716	     -2.56877146	    -14.63493178	      9.67765003	     -6.81558632	      2.02737083	     -4.26254626	     -8.12035100	      0.86924007
      1.12116667	     -4.70111731	      5.30472438	     -0.70169573	      0.22086245	      0.90658696	      0.30706176	     24.39642658	     -9.91358468	     -7.50119429	    -72.38558311	      1.26955344	     10.99780381	     10.69346402	     10.36788430	      9.07146926	     -2.32609047	    -14.11015801	      9.66541556	     -6.80822730	      2.01133224	     -4.29780960	     -7.78978389	      0.73174250
      1.12533333	     -4.62531173	      5.05475950	     -0.58633148	      0.22619987	      0.90763061	      0.30677205	     24.85595439	     -9.60904377	     -7.69729466	    -71.77791444	      1.64860566	     10.74001270	     10.55780399	      9.59832562	      8.87157375	     -1.99048159	    -13.49909144	      9.65865853	     -6.94691296	      1.97883115	     -4.36626785	     -7.48788664	      0.45042932
      1.12950000	     -4.58181611	      4.82109527	     -0.46315652	      0.23147521	      0.90854521	      0.30647317	     25.34970974	     -9.32181611	     -7.88433888	    -71.14059030	      2.10772544	     10.48052286	     10.33888283	      8.88442137	      8.68326029	     -1.65687202	    -12.91290662	      9.57433192	     -7.10205406	      1.92582242	     -4.42766378	     -7.19211640	      0.16891659
      1.13366667	     -4.52657554	      4.56474807	     -0.33181156	      0.23675290	      0.90943777	      0.30618106	     25.80024652	     -9.01178805	     -8.09305783	    -70.42391033	      2.52357075	     10.20532400	     10.09753952	      8.17589746	      8.45968180	     -1.35632552	    -12.36604463	      9.55943076	     -7.18975574	      1.87031540	     -4.49739069	     -6.86996243	     -0.05968572
      1.13783333	     -4.47024021	      4.29800155	     -0.19772651	      0.24202187	      0.91027265	      0.30589210	     26.22969829	     -8.69307408	     -8.31108958	    -69.64247357	      2.89266382	      9.91691672	      9.99392135	      7.48752435	      8.21337549	     -1.10456719	    -11.86316702	      9.62156222	     -7.17050775	      1.84845815	     -4.56324986	     -6.52423396	     -0.21128314
      1.14200000	     -4.41225479	      4.03851439	     -0.05359447	      0.24727059	      0.91105881	      0.30561437	     26.63727040	     -8.38302836	     -8.53380978	    -68.80313677	      3.28337630	      9.61384769	      9.90142618	      6.80722429	      7.96843638	     -0.85050622	    -11.36988463	      9.62745759	     -7.17869198	      1.82869680	     -4.63575325	     -6.22422120	     -0.41267792
      1.14616667	     -4.33405397	      3.80352365	      0.08689584	      0.25252854	      0.91179635	      0.30529789	     27.01531817	     -8.11593355	     -8.76259015	    -67.92713207	      3.61436373	      9.29262788	      9.77830762	      6.08564378	      7.75399930	     -0.56296895	    -10.83077223	      9.64380110	     -7.23206273	      1.80386439	     -4.73371862	     -5.89930784	     -0.67857407
      1.15033333	     -4.26474849	      3.57023650	      0.23696777	      0.25776522	      0.91246481	      0.30499609	     27.38329934	     -7.85040320	     -8.99590662	    -66.99457618	      3.94868562	      8.96877384	      9.64387023	      5.39128344	      7.53293915	     -0.28601405	    -10.32186510	      9.64964381	     -7.28414685	      1.77783520	     -4.81943831	     -5.60258244	     -0.92988345
      1.15450000	     -4.19276743	      3.34759587	      0.38655574	      0.26298406	      0.91306519	      0.30470439	     27.73676251	     -7.59783272	     -9.22707050	    -66.01771633	      4.26911121	      8.64044498	      9.49719283	      4.70218447	      7.31681791	     -0.02182186	     -9.82312986	      9.65805016	     -7.32952442	      1.75074171	     -4.91173671	     -5.31847291	     -1.17774192
      1.15866667	     -4.12547726	      3.13546688	      0.54036873	      0.26818569	      0.91358839	      0.30441724	     28.08161895	     -7.35956018	     -9.45833801	    -64.99537250	      4.56592981	      8.30270574	      9.34379669	      4.02808010	      7.10592112	      0.22899280	     -9.33851135	      9.67569746	     -7.35975510	      1.72410633	     -4.99854296	     -5.04855027	     -1.42246290
      1.16283333	     -4.05852324	      2.95059780	      0.69423446	      0.27336607	      0.91403518	      0.30413850	     28.41901121	     -7.15068217	     -9.67592104	    -63.94052174	      4.87373493	      7.96120811	      9.08173130	      3.35291487	      6.92199198	      0.50931030	     -8.84473171	      9.63944727	     -7.44072545	      1.67807989	     -5.09676199	     -4.82284258	     -1.73189149
      1.16700000	     -4.00693342	      2.74204499	      0.85478317	      0.27854642	      0.91440228	      0.30386727	     28.74652340	     -6.92210661	     -9.91900831	    -62.81939194	      5.13258520	      7.63235344	      8.97862739	      2.73595939	      6.69893663	      0.68423828	     -8.43747926	      9.71097591	     -7.39434831	      1.66329035	     -5.14841328	     -4.55072335	     -1.86859487
      1.17116667	     -3.92395298	      2.57566115	      0.99221012	      0.28372582	      0.91473054	      0.30362095	     29.04291086	     -6.73149418	    -10.12474716	    -61.67803903	      5.30991636	      7.26312352	      8.82031839	      2.04922311	      6.52149930	      0.90366300	     -7.95247826	      9.77184038	     -7.38415106	      1.64115755	     -5.25901245	     -4.32963346	     -2.13470973
      1.17533333	     -3.87361823	      2.40241107	      1.15313483	      0.28887606	      0.91495462	      0.30338170	     29.34864124	     -6.53669667	    -10.34765819	    -60.48200194	      5.54834112	      6.91630050	      8.70387186	      1.44133700	      6.32712132	      1.08282277	     -7.55174685	      9.80235982	     -7.35509328	      1.62540205	     -5.32490730	     -4.11166171	     -2.33388000
      1.17950000	     -3.80071161	      2.27264909	      1.28523971	      0.29403267	      0.91511308	      0.30316627	     29.63723035	     -6.38199846	    -10.53441221	    -59.27710931	      5.68083909	      6.55604709	      8.52241492	      0.77432420	      6.18092549	      1.28907533	     -7.07986342	      9.86662605	     -7.35703717	      1.60241069	     -5.42471709	     -3.93694714	     -2.61766446
      1.18366667	     -3.76387445	      2.13384972	      1.43547809	      0.29916816	      0.91516541	      0.30295946	     29.93892646	     -6.21937600	    -10.73370510	    -58.01869459	      5.87813152	      6.22399048	      8.40307431	      0.18821721	      6.01577467	      1.44183255	     -6.68914626	      9.90409230	     -7.31200484	      1.58837793	     -5.47469276	     -3.75644667	     -2.80324592
      1.18783333	     -3.71242422	      2.04039517	      1.55129533	      0.30430386	      0.91514479	      0.30279544	     30.23594690	     -6.08851942	    -10.88055598	    -56.76493032	      6.04328324	      5.89453680	      6.22603177	     -0.46891850	      5.90693596	      1.70844395	     -6.18620408	      9.89190055	     -7.49366568	      1.29797746	     -5.55031415	     -3.63115739	     -3.02440890
      1.19200000	     -3.67404337	      1.92957114	      1.69532077	      0.30944224	      0.91505947	      0.30262364	     30.50855050	     -5.95204928	    -11.06831476	    -55.43976997	      6.16862868	      5.58847194	      6.19811546	     -1.04163272	      5.76032189	      1.79494475	     -5.82706805	     10.00260346	     -7.32648763	      1.29702007	     -5.60536864	     -3.48421757	     -3.24194103
      1.19616667	     -3.63856923	      1.84607907	      1.81243093	      0.31458773	      0.91488322	      0.30249762	     30.78476650	     -5.82628550	    -11.21107283	    -54.10276702	      6.25896375	      5.26777184	      6.16406437	     -1.62615409	      5.64361817	      1.88731527	     -5.44139173	     10.09210766	     -7.21655762	      1.29578415	     -5.65801155	     -3.37017506	     -3.46017879
      1.20033333	     -3.60544906	      1.77810653	      1.92267483	      0.31973415	      0.91463556	      0.30239654	     31.05149880	     -5.71063652	    -11.34004017	    -52.74249001	      6.32970506	      4.97107883	      6.12440240	     -2.20992355	      5.54192379	      1.98391865	     -5.05330790	     10.18031952	     -7.12770372	      1.29422297	     -5.71071170	     -3.27478175	     -3.67568539
      1.20450000	     -3.57882924	      1.72643661	      2.02346054	      0.32489526	      0.91431109	      0.30232306	     31.31247110	     -5.60369665	    -11.44983574	    -51.36037704	      6.38801336	      4.69989665	      6.08024559	     -2.78550582	      5.45557136	      2.06953138	     -4.67146968	     10.26836812	     -7.04979748	      1.29286447	     -5.75560679	     -3.20138805	     -3.88589863
      1.20866667	     -3.55590396	      1.68274971	      2.11426026	      0.33006748	      0.91391376	      0.30227952	     31.56352027	     -5.49500386	    -11.54181135	    -49.95707155	      6.44073070	      4.45557512	      6.03285068	     -3.35730504	      5.37548913	      2.14640904	     -4.29196899	     10.36019532	     -6.97030089	      1.29167781	     -5.79405465	     -3.14098059	     -4.09077471
